{
	"asset":{
		"generator":"Khronos glTF Blender I/O v3.5.30",
		"version":"2.0"
	},
	"scene":0,
	"scenes":[
		{
			"name":"Scene",
			"nodes":[
				16,
				20,
				27,
				28,
				29
			]
		}
	],
	"nodes":[
		{
			"mesh":0,
			"name":"Object_4",
			"translation":[
				0,
				0,
				3.674428701400757
			]
		},
		{
			"mesh":1,
			"name":"Object_5",
			"translation":[
				0,
				0,
				3.674428701400757
			]
		},
		{
			"children":[
				0,
				1
			],
			"name":"Sphere.005_0",
			"rotation":[
				0.70710688829422,
				0,
				0,
				0.7071066498756409
			]
		},
		{
			"mesh":2,
			"name":"Object_7",
			"translation":[
				0,
				0,
				3.674428701400757
			]
		},
		{
			"mesh":3,
			"name":"Object_8",
			"translation":[
				0,
				0,
				3.674428701400757
			]
		},
		{
			"children":[
				3,
				4
			],
			"name":"Sphere.006_1",
			"rotation":[
				0.70710688829422,
				0,
				0,
				0.7071066498756409
			]
		},
		{
			"mesh":4,
			"name":"Object_10",
			"translation":[
				0,
				0,
				3.674428701400757
			]
		},
		{
			"children":[
				6
			],
			"name":"Sphere.007_2",
			"rotation":[
				0.70710688829422,
				0,
				0,
				0.7071066498756409
			]
		},
		{
			"mesh":5,
			"name":"Object_12",
			"translation":[
				0,
				0,
				3.674428701400757
			]
		},
		{
			"mesh":6,
			"name":"Object_13",
			"translation":[
				0,
				0,
				3.674428701400757
			]
		},
		{
			"children":[
				8,
				9
			],
			"name":"Sphere.008_3",
			"rotation":[
				0.70710688829422,
				0,
				0,
				0.7071066498756409
			]
		},
		{
			"mesh":7,
			"name":"Object_15",
			"translation":[
				0,
				0,
				3.674428701400757
			]
		},
		{
			"mesh":8,
			"name":"Object_16",
			"translation":[
				0,
				0,
				3.674428701400757
			]
		},
		{
			"children":[
				11,
				12
			],
			"name":"Sphere.009_4",
			"rotation":[
				0.70710688829422,
				0,
				0,
				0.7071066498756409
			]
		},
		{
			"children":[
				2,
				5,
				7,
				10,
				13
			],
			"name":"GLTF_SceneRootNode",
			"rotation":[
				0.70710688829422,
				0,
				0,
				0.7071066498756409
			]
		},
		{
			"children":[
				14
			],
			"name":"root"
		},
		{
			"children":[
				15
			],
			"name":"Sketchfab_model",
			"rotation":[
				-0.70710688829422,
				0,
				0,
				0.7071066498756409
			],
			"scale":[
				4.661443710327148,
				4.661444187164307,
				4.661444187164307
			]
		},
		{
			"name":"Emoticon 56",
			"rotation":[
				-0.70710688829422,
				0,
				0,
				0.7071066498756409
			],
			"scale":[
				100,
				99.99998474121094,
				99.99998474121094
			],
			"translation":[
				0,
				0,
				6.103515625e-05
			]
		},
		{
			"children":[
				17
			],
			"name":"RootNode",
			"translation":[
				0,
				0,
				6.103515625e-05
			]
		},
		{
			"children":[
				18
			],
			"name":"f1349aa08fae4e219ac55e7a4174edc5.fbx",
			"rotation":[
				0.70710688829422,
				0,
				0,
				0.7071066498756409
			],
			"scale":[
				0.009999999776482582,
				0.009999999776482582,
				0.009999999776482582
			]
		},
		{
			"children":[
				19
			],
			"name":"Sketchfab_model.001",
			"rotation":[
				-0.70710688829422,
				0,
				0,
				0.7071066498756409
			],
			"translation":[
				0,
				0,
				-8.633538246154785
			]
		},
		{
			"mesh":9,
			"name":"Object_8.001",
			"translation":[
				0.08152718842029572,
				0,
				3.6386351585388184
			]
		},
		{
			"children":[
				21
			],
			"name":"Sphere.006_1.001",
			"rotation":[
				0.70710688829422,
				0,
				0,
				0.7071066498756409
			]
		},
		{
			"mesh":10,
			"name":"Object_16.001",
			"translation":[
				0.08152718842029572,
				0,
				3.6386351585388184
			]
		},
		{
			"children":[
				23
			],
			"name":"Sphere.009_4.001",
			"rotation":[
				0.70710688829422,
				0,
				0,
				0.7071066498756409
			]
		},
		{
			"children":[
				22,
				24
			],
			"name":"GLTF_SceneRootNode.001",
			"rotation":[
				0.70710688829422,
				0,
				0,
				0.7071066498756409
			]
		},
		{
			"children":[
				25
			],
			"name":"root.001"
		},
		{
			"children":[
				26
			],
			"name":"Sketchfab_model.002",
			"rotation":[
				0,
				-0.7071068286895752,
				-0.7071068286895752,
				3.090862321641907e-08
			],
			"scale":[
				4.661444664001465,
				4.661444187164307,
				4.661444187164307
			],
			"translation":[
				0.19753742218017578,
				0,
				0
			]
		},
		{
			"mesh":11,
			"name":"Sphere",
			"scale":[
				3.768021583557129,
				0.5159790515899658,
				3.768021583557129
			],
			"translation":[
				-0.8476274609565735,
				-1.0185658931732178,
				0.023153435438871384
			]
		},
		{
			"mesh":12,
			"name":"Sphere.001",
			"scale":[
				3.768021583557129,
				0.6551287770271301,
				3.768021583557129
			],
			"translation":[
				-0.8348942995071411,
				-1.0185658931732178,
				0.023153435438871384
			]
		}
	],
	"materials":[
		{
			"doubleSided":true,
			"name":"Material.005",
			"pbrMetallicRoughness":{
				"baseColorFactor":[
					0.800000011920929,
					0.7851970195770264,
					0,
					1
				],
				"metallicFactor":0,
				"roughnessFactor":0.5
			}
		},
		{
			"name":"outline.001",
			"pbrMetallicRoughness":{
				"baseColorFactor":[
					0,
					0,
					0,
					1
				],
				"metallicFactor":0,
				"roughnessFactor":0.5
			}
		},
		{
			"doubleSided":true,
			"name":"Material.006",
			"pbrMetallicRoughness":{
				"baseColorFactor":[
					0,
					0,
					0,
					1
				],
				"metallicFactor":0,
				"roughnessFactor":0.5
			}
		},
		{
			"name":"outline.003",
			"pbrMetallicRoughness":{
				"baseColorFactor":[
					0,
					0,
					0,
					1
				],
				"metallicFactor":0,
				"roughnessFactor":0.5
			}
		},
		{
			"doubleSided":true,
			"name":"Material.007",
			"pbrMetallicRoughness":{
				"baseColorFactor":[
					0,
					0,
					0,
					1
				],
				"metallicFactor":0,
				"roughnessFactor":0.5
			}
		},
		{
			"doubleSided":true,
			"name":"None",
			"pbrMetallicRoughness":{
				"baseColorFactor":[
					0.800000011920929,
					0.800000011920929,
					0.800000011920929,
					1
				],
				"metallicFactor":0,
				"roughnessFactor":0.2928929924964905
			}
		},
		{
			"name":"outline.002",
			"pbrMetallicRoughness":{
				"baseColorFactor":[
					0,
					0,
					0,
					1
				],
				"metallicFactor":0,
				"roughnessFactor":0.5
			}
		},
		{
			"doubleSided":true,
			"name":"Material.008",
			"pbrMetallicRoughness":{
				"baseColorFactor":[
					0,
					0,
					0,
					1
				],
				"metallicFactor":0,
				"roughnessFactor":0.5
			}
		},
		{
			"name":"outline",
			"pbrMetallicRoughness":{
				"baseColorFactor":[
					0,
					0,
					0,
					1
				],
				"metallicFactor":0,
				"roughnessFactor":0.5
			}
		},
		{
			"name":"outline.004",
			"pbrMetallicRoughness":{
				"baseColorFactor":[
					0,
					0,
					0,
					1
				],
				"metallicFactor":0,
				"roughnessFactor":0.5
			}
		},
		{
			"name":"outline.005",
			"pbrMetallicRoughness":{
				"baseColorFactor":[
					0,
					0,
					0,
					1
				],
				"metallicFactor":0,
				"roughnessFactor":0.5
			}
		},
		{
			"doubleSided":true,
			"name":"Material.001",
			"pbrMetallicRoughness":{
				"metallicFactor":0,
				"roughnessFactor":0.5
			}
		},
		{
			"doubleSided":true,
			"name":"Material.002",
			"pbrMetallicRoughness":{
				"baseColorFactor":[
					0,
					0,
					0,
					1
				],
				"metallicFactor":0,
				"roughnessFactor":0.5
			}
		}
	],
	"meshes":[
		{
			"name":"Object_0",
			"primitives":[
				{
					"attributes":{
						"POSITION":0,
						"TEXCOORD_0":1,
						"NORMAL":2
					},
					"indices":3,
					"material":0
				}
			]
		},
		{
			"name":"Object_1",
			"primitives":[
				{
					"attributes":{
						"POSITION":4,
						"TEXCOORD_0":5,
						"NORMAL":6
					},
					"indices":7,
					"material":1
				}
			]
		},
		{
			"name":"Object_2",
			"primitives":[
				{
					"attributes":{
						"POSITION":8,
						"TEXCOORD_0":9,
						"NORMAL":10
					},
					"indices":11,
					"material":2
				}
			]
		},
		{
			"name":"Object_3",
			"primitives":[
				{
					"attributes":{
						"POSITION":12,
						"TEXCOORD_0":13,
						"NORMAL":14
					},
					"indices":15,
					"material":3
				}
			]
		},
		{
			"name":"Object_4",
			"primitives":[
				{
					"attributes":{
						"POSITION":16,
						"TEXCOORD_0":17,
						"NORMAL":18
					},
					"indices":19,
					"material":4
				}
			]
		},
		{
			"name":"Object_5",
			"primitives":[
				{
					"attributes":{
						"POSITION":20,
						"TEXCOORD_0":21,
						"NORMAL":22
					},
					"indices":23,
					"material":5
				}
			]
		},
		{
			"name":"Object_6",
			"primitives":[
				{
					"attributes":{
						"POSITION":24,
						"TEXCOORD_0":25,
						"NORMAL":26
					},
					"indices":27,
					"material":6
				}
			]
		},
		{
			"name":"Object_7",
			"primitives":[
				{
					"attributes":{
						"POSITION":28,
						"TEXCOORD_0":29,
						"NORMAL":30
					},
					"indices":31,
					"material":7
				}
			]
		},
		{
			"name":"Object_8",
			"primitives":[
				{
					"attributes":{
						"POSITION":32,
						"TEXCOORD_0":33,
						"NORMAL":34
					},
					"indices":35,
					"material":8
				}
			]
		},
		{
			"name":"Object_3.001",
			"primitives":[
				{
					"attributes":{
						"POSITION":36,
						"TEXCOORD_0":37,
						"NORMAL":38
					},
					"indices":15,
					"material":9
				}
			]
		},
		{
			"name":"Object_8.001",
			"primitives":[
				{
					"attributes":{
						"POSITION":39,
						"TEXCOORD_0":40,
						"NORMAL":41
					},
					"indices":35,
					"material":10
				}
			]
		},
		{
			"name":"Sphere",
			"primitives":[
				{
					"attributes":{
						"POSITION":42,
						"TEXCOORD_0":43,
						"NORMAL":44
					},
					"indices":45,
					"material":11
				}
			]
		},
		{
			"name":"Sphere.001",
			"primitives":[
				{
					"attributes":{
						"POSITION":46,
						"TEXCOORD_0":47,
						"NORMAL":48
					},
					"indices":45,
					"material":12
				}
			]
		}
	],
	"accessors":[
		{
			"bufferView":0,
			"componentType":5126,
			"count":2184,
			"max":[
				1.0243029594421387,
				0.9872310161590576,
				-2.8154330253601074
			],
			"min":[
				-0.9872310161590576,
				-0.9872310161590576,
				-4.810585975646973
			],
			"type":"VEC3"
		},
		{
			"bufferView":1,
			"componentType":5126,
			"count":2184,
			"type":"VEC2"
		},
		{
			"bufferView":2,
			"componentType":5126,
			"count":2184,
			"type":"VEC3"
		},
		{
			"bufferView":3,
			"componentType":5123,
			"count":11808,
			"type":"SCALAR"
		},
		{
			"bufferView":4,
			"componentType":5126,
			"count":2104,
			"max":[
				1.0372306108474731,
				1.0372309684753418,
				-2.7654330730438232
			],
			"min":[
				-1.0372309684753418,
				-1.0372309684753418,
				-4.860586166381836
			],
			"type":"VEC3"
		},
		{
			"bufferView":5,
			"componentType":5126,
			"count":2104,
			"type":"VEC2"
		},
		{
			"bufferView":6,
			"componentType":5126,
			"count":2104,
			"type":"VEC3"
		},
		{
			"bufferView":7,
			"componentType":5123,
			"count":11568,
			"type":"SCALAR"
		},
		{
			"bufferView":8,
			"componentType":5126,
			"count":559,
			"max":[
				1.098168969154358,
				0.3818869888782501,
				-3.763159990310669
			],
			"min":[
				0.8239439725875854,
				0.18365900218486786,
				-4.493597984313965
			],
			"type":"VEC3"
		},
		{
			"bufferView":9,
			"componentType":5126,
			"count":559,
			"type":"VEC2"
		},
		{
			"bufferView":10,
			"componentType":5126,
			"count":559,
			"type":"VEC3"
		},
		{
			"bufferView":11,
			"componentType":5123,
			"count":2880,
			"type":"SCALAR"
		},
		{
			"bufferView":12,
			"componentType":5126,
			"count":559,
			"max":[
				1.1281688213348389,
				0.4118826687335968,
				-3.734713554382324
			],
			"min":[
				0.7939441204071045,
				0.15366330742835999,
				-4.5220441818237305
			],
			"type":"VEC3"
		},
		{
			"bufferView":13,
			"componentType":5126,
			"count":559,
			"type":"VEC2"
		},
		{
			"bufferView":14,
			"componentType":5126,
			"count":559,
			"type":"VEC3"
		},
		{
			"bufferView":15,
			"componentType":5123,
			"count":2880,
			"type":"SCALAR"
		},
		{
			"bufferView":16,
			"componentType":5126,
			"count":66,
			"max":[
				0.9053720235824585,
				0.9608950018882751,
				-3.421757936477661
			],
			"min":[
				-0.9269480109214783,
				-0.9683939814567566,
				-3.934554100036621
			],
			"type":"VEC3"
		},
		{
			"bufferView":17,
			"componentType":5126,
			"count":66,
			"type":"VEC2"
		},
		{
			"bufferView":18,
			"componentType":5126,
			"count":66,
			"type":"VEC3"
		},
		{
			"bufferView":19,
			"componentType":5123,
			"count":192,
			"type":"SCALAR"
		},
		{
			"bufferView":20,
			"componentType":5126,
			"count":559,
			"max":[
				0.9246450066566467,
				0.9246439933776855,
				-2.900836944580078
			],
			"min":[
				-0.9246439933776855,
				-0.9246450066566467,
				-4.750126838684082
			],
			"type":"VEC3"
		},
		{
			"bufferView":21,
			"componentType":5126,
			"count":559,
			"type":"VEC2"
		},
		{
			"bufferView":22,
			"componentType":5126,
			"count":559,
			"type":"VEC3"
		},
		{
			"bufferView":23,
			"componentType":5123,
			"count":2880,
			"type":"SCALAR"
		},
		{
			"bufferView":24,
			"componentType":5126,
			"count":559,
			"max":[
				0.9646450281143188,
				0.9646440148353577,
				-2.860836982727051
			],
			"min":[
				-0.9646440148353577,
				-0.9646450281143188,
				-4.790126800537109
			],
			"type":"VEC3"
		},
		{
			"bufferView":25,
			"componentType":5126,
			"count":559,
			"type":"VEC2"
		},
		{
			"bufferView":26,
			"componentType":5126,
			"count":559,
			"type":"VEC3"
		},
		{
			"bufferView":27,
			"componentType":5123,
			"count":2880,
			"type":"SCALAR"
		},
		{
			"bufferView":28,
			"componentType":5126,
			"count":559,
			"max":[
				1.098168969154358,
				-0.13490499556064606,
				-3.763159990310669
			],
			"min":[
				0.8239439725875854,
				-0.3331330120563507,
				-4.493597984313965
			],
			"type":"VEC3"
		},
		{
			"bufferView":29,
			"componentType":5126,
			"count":559,
			"type":"VEC2"
		},
		{
			"bufferView":30,
			"componentType":5126,
			"count":559,
			"type":"VEC3"
		},
		{
			"bufferView":31,
			"componentType":5123,
			"count":2880,
			"type":"SCALAR"
		},
		{
			"bufferView":32,
			"componentType":5126,
			"count":559,
			"max":[
				1.1281688213348389,
				-0.10490930080413818,
				-3.734713554382324
			],
			"min":[
				0.7939441204071045,
				-0.3631287217140198,
				-4.5220441818237305
			],
			"type":"VEC3"
		},
		{
			"bufferView":33,
			"componentType":5126,
			"count":559,
			"type":"VEC2"
		},
		{
			"bufferView":34,
			"componentType":5126,
			"count":559,
			"type":"VEC3"
		},
		{
			"bufferView":35,
			"componentType":5123,
			"count":2880,
			"type":"SCALAR"
		},
		{
			"bufferView":36,
			"componentType":5126,
			"count":559,
			"max":[
				1.1281688213348389,
				0.4118826687335968,
				-3.734713554382324
			],
			"min":[
				0.7939441204071045,
				0.15366330742835999,
				-4.5220441818237305
			],
			"type":"VEC3"
		},
		{
			"bufferView":37,
			"componentType":5126,
			"count":559,
			"type":"VEC2"
		},
		{
			"bufferView":38,
			"componentType":5126,
			"count":559,
			"type":"VEC3"
		},
		{
			"bufferView":39,
			"componentType":5126,
			"count":559,
			"max":[
				1.1281688213348389,
				-0.10490930080413818,
				-3.734713554382324
			],
			"min":[
				0.7939441204071045,
				-0.3631287217140198,
				-4.5220441818237305
			],
			"type":"VEC3"
		},
		{
			"bufferView":40,
			"componentType":5126,
			"count":559,
			"type":"VEC2"
		},
		{
			"bufferView":41,
			"componentType":5126,
			"count":559,
			"type":"VEC3"
		},
		{
			"bufferView":42,
			"componentType":5126,
			"count":1984,
			"max":[
				0.9999997019767761,
				1,
				0.9999993443489075
			],
			"min":[
				-0.9999990463256836,
				-1,
				-1
			],
			"type":"VEC3"
		},
		{
			"bufferView":43,
			"componentType":5126,
			"count":1984,
			"type":"VEC2"
		},
		{
			"bufferView":44,
			"componentType":5126,
			"count":1984,
			"type":"VEC3"
		},
		{
			"bufferView":45,
			"componentType":5123,
			"count":2880,
			"type":"SCALAR"
		},
		{
			"bufferView":46,
			"componentType":5126,
			"count":1984,
			"max":[
				0.9999997019767761,
				1,
				0.9999993443489075
			],
			"min":[
				-0.9999990463256836,
				-1,
				-1
			],
			"type":"VEC3"
		},
		{
			"bufferView":47,
			"componentType":5126,
			"count":1984,
			"type":"VEC2"
		},
		{
			"bufferView":48,
			"componentType":5126,
			"count":1984,
			"type":"VEC3"
		}
	],
	"bufferViews":[
		{
			"buffer":0,
			"byteLength":26208,
			"byteOffset":0,
			"target":34962
		},
		{
			"buffer":0,
			"byteLength":17472,
			"byteOffset":26208,
			"target":34962
		},
		{
			"buffer":0,
			"byteLength":26208,
			"byteOffset":43680,
			"target":34962
		},
		{
			"buffer":0,
			"byteLength":23616,
			"byteOffset":69888,
			"target":34963
		},
		{
			"buffer":0,
			"byteLength":25248,
			"byteOffset":93504,
			"target":34962
		},
		{
			"buffer":0,
			"byteLength":16832,
			"byteOffset":118752,
			"target":34962
		},
		{
			"buffer":0,
			"byteLength":25248,
			"byteOffset":135584,
			"target":34962
		},
		{
			"buffer":0,
			"byteLength":23136,
			"byteOffset":160832,
			"target":34963
		},
		{
			"buffer":0,
			"byteLength":6708,
			"byteOffset":183968,
			"target":34962
		},
		{
			"buffer":0,
			"byteLength":4472,
			"byteOffset":190676,
			"target":34962
		},
		{
			"buffer":0,
			"byteLength":6708,
			"byteOffset":195148,
			"target":34962
		},
		{
			"buffer":0,
			"byteLength":5760,
			"byteOffset":201856,
			"target":34963
		},
		{
			"buffer":0,
			"byteLength":6708,
			"byteOffset":207616,
			"target":34962
		},
		{
			"buffer":0,
			"byteLength":4472,
			"byteOffset":214324,
			"target":34962
		},
		{
			"buffer":0,
			"byteLength":6708,
			"byteOffset":218796,
			"target":34962
		},
		{
			"buffer":0,
			"byteLength":5760,
			"byteOffset":225504,
			"target":34963
		},
		{
			"buffer":0,
			"byteLength":792,
			"byteOffset":231264,
			"target":34962
		},
		{
			"buffer":0,
			"byteLength":528,
			"byteOffset":232056,
			"target":34962
		},
		{
			"buffer":0,
			"byteLength":792,
			"byteOffset":232584,
			"target":34962
		},
		{
			"buffer":0,
			"byteLength":384,
			"byteOffset":233376,
			"target":34963
		},
		{
			"buffer":0,
			"byteLength":6708,
			"byteOffset":233760,
			"target":34962
		},
		{
			"buffer":0,
			"byteLength":4472,
			"byteOffset":240468,
			"target":34962
		},
		{
			"buffer":0,
			"byteLength":6708,
			"byteOffset":244940,
			"target":34962
		},
		{
			"buffer":0,
			"byteLength":5760,
			"byteOffset":251648,
			"target":34963
		},
		{
			"buffer":0,
			"byteLength":6708,
			"byteOffset":257408,
			"target":34962
		},
		{
			"buffer":0,
			"byteLength":4472,
			"byteOffset":264116,
			"target":34962
		},
		{
			"buffer":0,
			"byteLength":6708,
			"byteOffset":268588,
			"target":34962
		},
		{
			"buffer":0,
			"byteLength":5760,
			"byteOffset":275296,
			"target":34963
		},
		{
			"buffer":0,
			"byteLength":6708,
			"byteOffset":281056,
			"target":34962
		},
		{
			"buffer":0,
			"byteLength":4472,
			"byteOffset":287764,
			"target":34962
		},
		{
			"buffer":0,
			"byteLength":6708,
			"byteOffset":292236,
			"target":34962
		},
		{
			"buffer":0,
			"byteLength":5760,
			"byteOffset":298944,
			"target":34963
		},
		{
			"buffer":0,
			"byteLength":6708,
			"byteOffset":304704,
			"target":34962
		},
		{
			"buffer":0,
			"byteLength":4472,
			"byteOffset":311412,
			"target":34962
		},
		{
			"buffer":0,
			"byteLength":6708,
			"byteOffset":315884,
			"target":34962
		},
		{
			"buffer":0,
			"byteLength":5760,
			"byteOffset":322592,
			"target":34963
		},
		{
			"buffer":0,
			"byteLength":6708,
			"byteOffset":328352,
			"target":34962
		},
		{
			"buffer":0,
			"byteLength":4472,
			"byteOffset":335060,
			"target":34962
		},
		{
			"buffer":0,
			"byteLength":6708,
			"byteOffset":339532,
			"target":34962
		},
		{
			"buffer":0,
			"byteLength":6708,
			"byteOffset":346240,
			"target":34962
		},
		{
			"buffer":0,
			"byteLength":4472,
			"byteOffset":352948,
			"target":34962
		},
		{
			"buffer":0,
			"byteLength":6708,
			"byteOffset":357420,
			"target":34962
		},
		{
			"buffer":0,
			"byteLength":23808,
			"byteOffset":364128,
			"target":34962
		},
		{
			"buffer":0,
			"byteLength":15872,
			"byteOffset":387936,
			"target":34962
		},
		{
			"buffer":0,
			"byteLength":23808,
			"byteOffset":403808,
			"target":34962
		},
		{
			"buffer":0,
			"byteLength":5760,
			"byteOffset":427616,
			"target":34963
		},
		{
			"buffer":0,
			"byteLength":23808,
			"byteOffset":433376,
			"target":34962
		},
		{
			"buffer":0,
			"byteLength":15872,
			"byteOffset":457184,
			"target":34962
		},
		{
			"buffer":0,
			"byteLength":23808,
			"byteOffset":473056,
			"target":34962
		}
	],
	"buffers":[
		{
			"byteLength":496864,
			"uri":"data:application/octet-stream;base64,"
		}
	]
}
