{
	"asset":{
		"generator":"Khronos glTF Blender I/O v3.5.30",
		"version":"2.0"
	},
	"scene":0,
	"scenes":[
		{
			"name":"Scene",
			"nodes":[
				4
			]
		}
	],
	"nodes":[
		{
			"mesh":0,
			"name":"Emoticon 56_M_Emoticon 56_0",
			"rotation":[
				0,
				0,
				0.6890087127685547,
				0.7247530817985535
			],
			"scale":[
				1.556053876876831,
				1.5560539960861206,
				1.5560537576675415
			],
			"translation":[
				0,
				-8.65503215789795,
				-2.622009560582228e-06
			]
		},
		{
			"children":[
				0
			],
			"name":"Emoticon 56",
			"rotation":[
				-0.70710688829422,
				0,
				0,
				0.7071066498756409
			],
			"scale":[
				100,
				99.99999237060547,
				99.99999237060547
			]
		},
		{
			"children":[
				1
			],
			"name":"RootNode"
		},
		{
			"children":[
				2
			],
			"name":"f1349aa08fae4e219ac55e7a4174edc5.fbx",
			"rotation":[
				0.70710688829422,
				0,
				0,
				0.7071066498756409
			],
			"scale":[
				0.009999999776482582,
				0.010000000707805157,
				0.010000000707805157
			]
		},
		{
			"children":[
				3
			],
			"name":"Sketchfab_model.001",
			"rotation":[
				-0.70710688829422,
				0,
				0,
				0.7071066498756409
			],
			"translation":[
				0,
				0,
				-8.633538246154785
			]
		}
	],
	"materials":[
		{
			"doubleSided":true,
			"name":"M_Emoticon_56",
			"pbrMetallicRoughness":{
				"baseColorTexture":{
					"index":0
				},
				"metallicFactor":0,
				"metallicRoughnessTexture":{
					"index":1
				}
			}
		}
	],
	"meshes":[
		{
			"name":"Emoticon 56_M_Emoticon 56_0",
			"primitives":[
				{
					"attributes":{
						"POSITION":0,
						"TEXCOORD_0":1,
						"TEXCOORD_1":2,
						"NORMAL":3
					},
					"indices":4,
					"material":0
				}
			]
		}
	],
	"textures":[
		{
			"sampler":0,
			"source":0
		},
		{
			"sampler":0,
			"source":1
		}
	],
	"images":[
		{
			"bufferView":5,
			"mimeType":"image/png",
			"name":"M_Emoticon_56_baseColor"
		},
		{
			"bufferView":6,
			"mimeType":"image/png",
			"name":"M_Emoticon_56_metallicRoughness"
		}
	],
	"accessors":[
		{
			"bufferView":0,
			"componentType":5126,
			"count":3341,
			"max":[
				3.5547025203704834,
				3.5547001361846924,
				3.5919525623321533
			],
			"min":[
				-3.5547001361846924,
				-3.5915145874023438,
				-3.5919525623321533
			],
			"type":"VEC3"
		},
		{
			"bufferView":1,
			"componentType":5126,
			"count":3341,
			"type":"VEC2"
		},
		{
			"bufferView":2,
			"componentType":5126,
			"count":3341,
			"type":"VEC2"
		},
		{
			"bufferView":3,
			"componentType":5126,
			"count":3341,
			"type":"VEC3"
		},
		{
			"bufferView":4,
			"componentType":5123,
			"count":18624,
			"type":"SCALAR"
		}
	],
	"bufferViews":[
		{
			"buffer":0,
			"byteLength":40092,
			"byteOffset":0,
			"target":34962
		},
		{
			"buffer":0,
			"byteLength":26728,
			"byteOffset":40092,
			"target":34962
		},
		{
			"buffer":0,
			"byteLength":26728,
			"byteOffset":66820,
			"target":34962
		},
		{
			"buffer":0,
			"byteLength":40092,
			"byteOffset":93548,
			"target":34962
		},
		{
			"buffer":0,
			"byteLength":37248,
			"byteOffset":133640,
			"target":34963
		},
		{
			"buffer":0,
			"byteLength":17293,
			"byteOffset":170888
		},
		{
			"buffer":0,
			"byteLength":17565,
			"byteOffset":188184
		}
	],
	"samplers":[
		{
			"magFilter":9729,
			"minFilter":9987
		}
	],
	"buffers":[
		{
			"byteLength":205752,
			"uri":"data:application/octet-stream;base64,"
		}
	]
}
